<svg width="16" height="16" viewBox="0 0 16 16" fill="none" xmlns="http://www.w3.org/2000/svg">
<path d="M8 14.0001C11.3137 14.0001 14 11.3138 14 8.00012C14 4.68641 11.3137 2.00012 8 2.00012C4.68629 2.00012 2 4.68641 2 8.00012C2 11.3138 4.68629 14.0001 8 14.0001Z" stroke="#BBF400" stroke-width="1.5" stroke-linecap="round" stroke-linejoin="round"/>
<path fill-rule="evenodd" clip-rule="evenodd" d="M8.00019 4.91272C8.26943 4.91272 8.48769 5.13098 8.48769 5.40022V7.79829L9.96991 9.2805C10.1603 9.47089 10.1603 9.77955 9.96991 9.96993C9.77953 10.1603 9.47086 10.1603 9.28048 9.96993L7.65548 8.34493C7.56406 8.25351 7.5127 8.12951 7.5127 8.00022V5.40022C7.5127 5.13098 7.73096 4.91272 8.00019 4.91272Z" fill="#BBF400"/>
</svg>
