<svg width="16" height="16" viewBox="0 0 16 16" fill="none" xmlns="http://www.w3.org/2000/svg">
<g clip-path="url(#clip0_1_441)">
<path d="M7.99979 15.0001C6.99785 15 6.01904 14.7171 5.19027 14.188C4.3615 13.6589 3.72101 12.908 3.35182 12.0327C2.98263 11.1574 2.90179 10.1981 3.11977 9.27907C3.33775 8.36008 3.76976 7.34402 4.49958 6.69892C5.49962 5.75916 6.99968 4.34952 7.4997 2.00012C10.4998 4.34952 12.4999 6.22904 8.49975 9.98808C7.99972 10.458 10.9999 10.3013 12.6667 8.75386C12.8467 9.23815 13 9.75877 13 10.3013C13 11.5475 12.4732 12.7427 11.5355 13.6239C10.5977 14.5051 9.32593 15.0001 7.99979 15.0001Z" stroke="#BBF400" stroke-width="1.5"/>
</g>
<defs>
<clipPath id="clip0_1_441">
<rect width="16" height="16" fill="white"/>
</clipPath>
</defs>
</svg>
