<svg width="18" height="18" viewBox="0 0 18 18" fill="none" xmlns="http://www.w3.org/2000/svg">
<path d="M13.7029 1.94624C13.9194 1.72981 13.9194 1.37888 13.7029 1.16245C13.4865 0.946013 13.1356 0.946013 12.9191 1.16245L10.8257 3.25585C9.58969 2.66545 8.0648 2.88165 7.04071 3.90572C6.4386 4.50784 6.11566 5.28343 6.0719 6.07161C5.28416 6.11534 4.50795 6.43806 3.9056 7.04041C3.5091 7.4369 3.23371 7.90843 3.07935 8.40934C2.92889 8.8944 2.89516 9.3983 2.96815 9.88391C3.01631 10.2072 3.11217 10.5249 3.25572 10.8254L1.16233 12.9188C0.945891 13.1353 0.945891 13.4862 1.16233 13.7026C1.37877 13.9191 1.72968 13.9191 1.94612 13.7026L3.90502 11.7438C4.10612 11.9446 4.33648 12.1227 4.59432 12.2716C4.8594 12.4247 5.19837 12.3338 5.35141 12.0688C5.50445 11.8036 5.41363 11.4648 5.14854 11.3117C4.98318 11.2163 4.83479 11.1026 4.70439 10.975C4.69951 10.9696 4.69451 10.9645 4.68939 10.9593C4.59061 10.8606 4.50338 10.7551 4.42751 10.6447C4.21492 10.3338 4.0858 9.97425 4.04997 9.60269C4.02165 9.30397 4.05378 9.00047 4.14633 8.71228C4.19365 8.56574 4.25703 8.42209 4.3371 8.28331C4.34077 8.27699 4.34431 8.27056 4.34769 8.26413C4.44058 8.10718 4.55447 7.95909 4.68939 7.82419C5.10648 7.40708 5.64814 7.19071 6.19553 7.17575C6.34577 7.70038 6.62751 8.19519 7.04071 8.60842C7.46857 9.03628 7.98499 9.32359 8.53101 9.46946C8.677 10.0156 8.96419 10.532 9.39205 10.9599C9.80517 11.3729 10.3 11.6547 10.8244 11.805C10.8093 12.3522 10.5929 12.8937 10.1759 13.3108C9.41799 14.0686 8.24659 14.1634 7.3861 13.5933C7.16629 13.4477 6.87444 13.4771 6.68806 13.6635L4.29749 16.054C4.08106 16.2704 4.08106 16.6214 4.29749 16.8378C4.51393 17.0542 4.86484 17.0542 5.08129 16.8378L7.17472 14.7444C8.41075 15.3348 9.93564 15.1185 10.9597 14.0946C11.562 13.4922 11.8846 12.7162 11.9285 11.9287C12.7168 11.885 13.4926 11.5621 14.0949 10.9599C14.4912 10.5634 14.7666 10.092 14.921 9.59128C15.0715 9.10611 15.1053 8.60199 15.0323 8.11616C14.9841 7.79293 14.8883 7.47525 14.7447 7.17475L16.8381 5.0814C17.0545 4.86496 17.0545 4.51405 16.8381 4.29761C16.6217 4.08118 16.2707 4.08118 16.0544 4.29761L14.0954 6.25651C13.8943 6.05566 13.6639 5.87749 13.4061 5.72863C13.141 5.57558 12.8021 5.6664 12.649 5.93148C12.496 6.19657 12.5868 6.53552 12.8519 6.68856C13.0172 6.78402 13.1657 6.89764 13.296 7.02533C13.3009 7.03054 13.3059 7.03575 13.3111 7.04085C13.4098 7.13961 13.4971 7.24503 13.5729 7.35543C13.7855 7.66635 13.9146 8.02593 13.9504 8.39759C13.9788 8.69632 13.9467 8.99981 13.8541 9.28812C13.8068 9.43454 13.7434 9.5782 13.6633 9.71686C13.6597 9.72329 13.6561 9.72961 13.6527 9.73604C13.5598 9.89311 13.446 10.0411 13.3111 10.1761C12.8053 10.6818 12.1161 10.892 11.4578 10.807C11.4395 10.8034 11.4208 10.8007 11.402 10.799C10.9532 10.7294 10.5217 10.5218 10.1758 10.1761C9.82258 9.82272 9.61397 9.38123 9.54879 8.92255C9.51409 8.67836 9.32222 8.48649 9.07803 8.45179C8.61936 8.38662 8.17786 8.17801 7.82449 7.82463C7.47699 7.47714 7.26894 7.04296 7.20043 6.59172C7.19899 6.57726 7.197 6.56294 7.19434 6.54878C7.10721 5.88862 7.31726 5.19674 7.82449 4.68951C8.58244 3.93158 9.75385 3.83679 10.6143 4.40694C10.8341 4.55252 11.126 4.52319 11.3123 4.3368L13.7029 1.94624Z" fill="#BBF400" stroke="#BBF400" stroke-width="0.4"/>
</svg>
