<svg width="19" height="18" viewBox="0 0 19 18" fill="none" xmlns="http://www.w3.org/2000/svg">
<path d="M9.00057 17.3335C4.39807 17.3335 0.667236 13.6026 0.667236 9.00014C0.667236 4.39765 4.39807 0.666811 9.00057 0.666811C10.2945 0.665839 11.5707 0.966622 12.728 1.54526C13.8853 2.1239 14.8917 2.96446 15.6672 4.00014H13.4089C12.4466 3.15161 11.2599 2.59878 9.99117 2.40798C8.72245 2.21718 7.42562 2.39652 6.25631 2.92449C5.08699 3.45245 4.09486 4.30661 3.39896 5.38447C2.70306 6.46232 2.33296 7.71808 2.33307 9.00107C2.33317 10.2841 2.70349 11.5398 3.39956 12.6175C4.09564 13.6952 5.08792 14.5492 6.25732 15.077C7.42673 15.6048 8.72358 15.7839 9.99226 15.5929C11.2609 15.4019 12.4476 14.8488 13.4097 14.0001H15.6681C14.8924 15.0359 13.8859 15.8766 12.7285 16.4552C11.571 17.0339 10.2946 17.3346 9.00057 17.3335ZM14.8339 12.3335V9.83348H8.16724V8.16681H14.8339V5.66681L19.0006 9.00014L14.8339 12.3335Z" fill="#141414"/>
</svg>
